# xmcd
#
# Track frame offsets: 
#        150
#        27689
#        40679
#        54427
#        79455
#        100953
#        111385
#        123054
#        139887
#        156532
#        168795
#        182171
#        197397
#        211346
#        223526
#        242835
#        253418
#
# Disc length: 3638 seconds
#
# Revision: 0
# Processed by: cddbd v1.5.2PL0 Copyright (c) Steve Scherf et al.
# Submitted via: ExactAudioCopy v1.0b3
#
DISCID=fa0e3411
DTITLE=Various Artist - Moods For Blues - Disc 2
DYEAR=1900
DGENRE=Blues
TTITLE0=Muddy Waters - Howling Wolf (Live)
TTITLE1=Jellybread - I've Got To Forget You
TTITLE2=Taj Mahal - Corinna
TTITLE3=Henry "Red" Allen - Let Me Miss You, Baby (1991 Remastered)
TTITLE4=The Vaughan Brothers - Hard To Be
TTITLE5=Top Topham - Sawbuk
TTITLE6=Eddie "Cleanhead" Vinson - Cleanhead Blues
TTITLE7=Etta James - Hold Me (Just A Little Longer)
TTITLE8=Joe Williams - Everyday I have The Blues
TTITLE9=Big Maceo Merriweather - Broke And Hungry Blues
TTITLE10=Memphis Slim - Beer Drinkin' Woman (1997 Remastered)
TTITLE11=Big Bill Broonzy - Friendless Blues
TTITLE12=Washboard Sam and His Washboard Band - She's Makin' A Fool Out 
TTITLE12=Of Me
TTITLE13=Billie Holiday and Her Orchestra - Billie's Blues (I Love My Ma
TTITLE13=n)
TTITLE14=Louis Armstrong and His All Stars - Back O' Town Blues
TTITLE15=Keb' Mo' - Am I Wrong
TTITLE16=Jeff Beck - JB's Blues
EXTD=
EXTT0=
EXTT1=
EXTT2=
EXTT3=
EXTT4=
EXTT5=
EXTT6=
EXTT7=
EXTT8=
EXTT9=
EXTT10=
EXTT11=
EXTT12=
EXTT13=
EXTT14=
EXTT15=
EXTT16=
PLAYORDER=
